<svg id="visual" viewBox="0 0 960 540" width="960" height="540" xmlns="http://www.w3.org/2000/svg" xmlns:xlink="http://www.w3.org/1999/xlink" version="1.1"><rect x="0" y="0" width="960" height="540" fill="#C1CAD6"></rect><path d="M0 146L120 138L240 167L360 114L480 133L600 158L720 141L840 144L960 169L960 0L840 0L720 0L600 0L480 0L360 0L240 0L120 0L0 0Z" fill="#3066be"></path><path d="M0 92L120 100L240 108L360 104L480 130L600 112L720 121L840 137L960 106L960 0L840 0L720 0L600 0L480 0L360 0L240 0L120 0L0 0Z" fill="#7c56b6"></path><path d="M0 108L120 93L240 84L360 94L480 84L600 71L720 103L840 96L960 74L960 0L840 0L720 0L600 0L480 0L360 0L240 0L120 0L0 0Z" fill="#ad3f9c"></path><path d="M0 52L120 69L240 59L360 74L480 52L600 79L720 70L840 73L960 46L960 0L840 0L720 0L600 0L480 0L360 0L240 0L120 0L0 0Z" fill="#cc2475"></path><path d="M0 30L120 25L240 31L360 42L480 25L600 27L720 22L840 45L960 24L960 0L840 0L720 0L600 0L480 0L360 0L240 0L120 0L0 0Z" fill="#d62246"></path></svg>