<svg id="visual" viewBox="0 0 540 960" width="540" height="960" xmlns="http://www.w3.org/2000/svg" xmlns:xlink="http://www.w3.org/1999/xlink" version="1.1"><rect x="0" y="0" width="540" height="960" fill="#C1CAD6"></rect><path d="M0 260L68 245L135 297L203 204L270 237L338 282L405 252L473 256L540 302L540 0L473 0L405 0L338 0L270 0L203 0L135 0L68 0L0 0Z" fill="#3066be"></path><path d="M0 164L68 179L135 193L203 186L270 232L338 200L405 216L473 244L540 190L540 0L473 0L405 0L338 0L270 0L203 0L135 0L68 0L0 0Z" fill="#7c56b6"></path><path d="M0 193L68 166L135 149L203 167L270 151L338 126L405 184L473 171L540 132L540 0L473 0L405 0L338 0L270 0L203 0L135 0L68 0L0 0Z" fill="#ad3f9c"></path><path d="M0 92L68 124L135 106L203 132L270 93L338 142L405 126L473 131L540 83L540 0L473 0L405 0L338 0L270 0L203 0L135 0L68 0L0 0Z" fill="#cc2475"></path><path d="M0 54L68 46L135 56L203 75L270 45L338 49L405 40L473 82L540 43L540 0L473 0L405 0L338 0L270 0L203 0L135 0L68 0L0 0Z" fill="#d62246"></path></svg>