<?xml version="1.0" encoding="UTF-8" standalone="no"?><!DOCTYPE svg PUBLIC "-//W3C//DTD SVG 1.1//EN" "http://www.w3.org/Graphics/SVG/1.1/DTD/svg11.dtd"><svg width="100%" height="100%" viewBox="0 0 1024 1024" version="1.1" xmlns="http://www.w3.org/2000/svg" xmlns:xlink="http://www.w3.org/1999/xlink" xml:space="preserve" xmlns:serif="http://www.serif.com/" style="fill-rule:evenodd;clip-rule:evenodd;stroke-linecap:round;stroke-linejoin:round;stroke-miterlimit:1.5;"><circle cx="512" cy="512" r="479.912" style="fill-opacity:0;"/><path d="M512,7.088c278.669,0 504.912,226.243 504.912,504.912c0,278.669 -226.243,504.912 -504.912,504.912c-278.669,0 -504.912,-226.243 -504.912,-504.912c0,-278.669 226.243,-504.912 504.912,-504.912Zm0,25c-264.871,0 -479.912,215.041 -479.912,479.912c0,264.871 215.041,479.912 479.912,479.912c264.871,0 479.912,-215.041 479.912,-479.912c0,-264.871 -215.041,-479.912 -479.912,-479.912Z" style="fill:#f5f5f5;"/><path d="M512,216.798c162.926,0 295.202,132.276 295.202,295.202c-0,162.926 -132.276,295.202 -295.202,295.202c-162.926,-0 -295.202,-132.276 -295.202,-295.202c0,-162.926 132.276,-295.202 295.202,-295.202Zm-0,25c-149.128,0 -270.202,121.074 -270.202,270.202c0,149.128 121.074,270.202 270.202,270.202c149.128,-0 270.202,-121.074 270.202,-270.202c-0,-149.128 -121.074,-270.202 -270.202,-270.202Z" style="fill:#f5f5f5;"/><circle cx="512" cy="512" r="387.5" style="fill-opacity:0;stroke:#3066be;stroke-width:185px;"/></svg>