<?xml version="1.0" encoding="UTF-8" standalone="no"?><!DOCTYPE svg PUBLIC "-//W3C//DTD SVG 1.1//EN" "http://www.w3.org/Graphics/SVG/1.1/DTD/svg11.dtd"><svg width="100%" height="100%" viewBox="0 0 1024 1024" version="1.1" xmlns="http://www.w3.org/2000/svg" xmlns:xlink="http://www.w3.org/1999/xlink" xml:space="preserve" xmlns:serif="http://www.serif.com/" style="fill-rule:evenodd;clip-rule:evenodd;stroke-linejoin:round;stroke-miterlimit:2;"><g><path d="M237.092,65.143l721.765,721.765c47.45,47.45 47.45,124.498 -0,171.949c-47.451,47.45 -124.499,47.45 -171.949,-0l-721.765,-721.765c-47.45,-47.45 -47.45,-124.498 0,-171.949c47.451,-47.45 124.499,-47.45 171.949,0Z" style="fill:#d62246;"/><path d="M958.857,237.092l-721.765,721.765c-47.45,47.45 -124.498,47.45 -171.949,-0c-47.45,-47.451 -47.45,-124.499 0,-171.949l721.765,-721.765c47.45,-47.45 124.498,-47.45 171.949,0c47.45,47.451 47.45,124.499 -0,171.949Z" style="fill:#d62246;"/></g></svg>