<?xml version="1.0" encoding="UTF-8" standalone="no"?><!DOCTYPE svg PUBLIC "-//W3C//DTD SVG 1.1//EN" "http://www.w3.org/Graphics/SVG/1.1/DTD/svg11.dtd"><svg width="100%" height="100%" viewBox="0 0 1024 1024" version="1.1" xmlns="http://www.w3.org/2000/svg" xmlns:xlink="http://www.w3.org/1999/xlink" xml:space="preserve" xmlns:serif="http://www.serif.com/" style="fill-rule:evenodd;clip-rule:evenodd;stroke-linecap:round;stroke-linejoin:round;stroke-miterlimit:1.5;"><g><path d="M340.051,512l-274.908,-274.908c-47.45,-47.45 -47.45,-124.498 0,-171.949c47.451,-47.45 124.499,-47.45 171.949,0l274.908,274.908l274.908,-274.908c47.45,-47.45 124.498,-47.45 171.949,0c47.45,47.451 47.45,124.499 -0,171.949l-274.908,274.908l274.908,274.908c47.45,47.45 47.45,124.498 -0,171.949c-47.451,47.45 -124.499,47.45 -171.949,-0l-274.908,-274.908l-274.908,274.908c-47.45,47.45 -124.498,47.45 -171.949,-0c-47.45,-47.451 -47.45,-124.499 0,-171.949l274.908,-274.908Z" style="fill:#d62246;stroke:#f5f5f5;stroke-width:25px;"/></g></svg>